<svg xmlns="http://www.w3.org/2000/svg" viewBox="-10 -10 520 520"><rect x="0" y="0" width="500" height="500" fill="none" stroke="#000"/><polygon points="82.44,417.59 82.44,500.00 0.03,500.00 0.03,417.59" fill="#7aa" stroke="#125" stroke-width="0.6" fill-opacity="0.7"/><polygon points="165.15,332.27 165.15,417.59 79.83,417.59 79.83,332.27" fill="#7aa" stroke="#125" stroke-width="0.6" fill-opacity="0.7"/><polygon points="166.37,165.92 166.37,332.27 0.02,332.27 0.02,165.92" fill="#7aa" stroke="#125" stroke-width="0.6" fill-opacity="0.7"/><polygon points="166.46,0.00 166.46,165.92 0.54,165.92 0.54,0.00" fill="#7aa" stroke="#125" stroke-width="0.6" fill-opacity="0.7"/><polygon points="332.88,332.56 332.88,500.00 165.45,500.00 165.45,332.56" fill="#7aa" stroke="#125" stroke-width="0.6" fill-opacity="0.7"/><polygon points="332.87,166.17 332.87,332.56 166.49,332.56 166.49,166.17" fill="#7aa" stroke="#125" stroke-width="0.6" fill-opacity="0.7"/><polygon points="332.86,0.00 332.86,166.17 166.69,166.17 166.69,0.00" fill="#7aa" stroke="#125" stroke-width="0.6" fill-opacity="0.7"/><polygon points="499.69,333.38 499.69,500.00 333.08,500.00 333.08,333.38" fill="#7aa" stroke="#125" stroke-width="0.6" fill-opacity="0.7"/><polygon points="499.99,166.52 499.99,333.38 333.12,333.38 333.12,166.52" fill="#7aa" stroke="#125" stroke-width="0.6" fill-opacity="0.7"/><polygon points="499.96,0.00 499.96,166.52 333.44,166.52 333.44,0.00" fill="#7aa" stroke="#125" stroke-width="0.6" fill-opacity="0.7"/></svg>